<?xml version="1.0" encoding="UTF-8"?>
<svg width="1024px" height="1020px" viewBox="0 0 1024 1020" version="1.1" xmlns="http://www.w3.org/2000/svg" xmlns:xlink="http://www.w3.org/1999/xlink">
    <!-- Generator: Sketch 43.2 (39069) - http://www.bohemiancoding.com/sketch -->
    <title>Group</title>
    <desc>Created with Sketch.</desc>
    <defs></defs>
    <g id="Page-1" stroke="none" stroke-width="1" fill="none" fill-rule="evenodd">
        <g id="Group">
            <g id="Chirr-App-Logo">
                <path d="M517.333333,874.666667 C469.529303,874.666667 421.557782,871.564886 375.144792,864.258206 C345.057292,883.96875 250.34375,1034.03646 90.84375,1018.52083 C103.252604,1002.08073 172.221354,928.242187 145.2582,774.140261 C57.6053887,707.291842 1.0658141e-14,600.893735 0,437.333333 C0,89.1341361 261.073209,0 517.333333,0 C773.593457,0 1024,89.1341361 1024,437.333333 C1024,785.532531 773.593457,874.666667 517.333333,874.666667 Z M330.666667,490.666667 C354.230816,490.666667 373.333333,471.564149 373.333333,448 C373.333333,424.435851 354.230816,405.333333 330.666667,405.333333 C307.102517,405.333333 288,424.435851 288,448 C288,471.564149 307.102517,490.666667 330.666667,490.666667 Z M517.333333,490.666667 C540.897483,490.666667 560,471.564149 560,448 C560,424.435851 540.897483,405.333333 517.333333,405.333333 C493.769184,405.333333 474.666667,424.435851 474.666667,448 C474.666667,471.564149 493.769184,490.666667 517.333333,490.666667 Z M704,490.666667 C727.564149,490.666667 746.666667,471.564149 746.666667,448 C746.666667,424.435851 727.564149,405.333333 704,405.333333 C680.435851,405.333333 661.333333,424.435851 661.333333,448 C661.333333,471.564149 680.435851,490.666667 704,490.666667 Z" id="Combined-Shape" fill="#55ACEE"></path>
                <g id="Dots" transform="translate(288.000000, 405.333333)"></g>
            </g>
        </g>
    </g>
</svg>