<?xml version="1.0" encoding="UTF-8"?>
<svg width="1024px" height="1020px" viewBox="0 0 1024 1020" version="1.1" xmlns="http://www.w3.org/2000/svg" xmlns:xlink="http://www.w3.org/1999/xlink">
    <!-- Generator: Sketch 43.2 (39069) - http://www.bohemiancoding.com/sketch -->
    <title>Group</title>
    <desc>Created with Sketch.</desc>
    <defs>
        <linearGradient x1="50%" y1="0%" x2="50%" y2="100%" id="linearGradient-1">
            <stop stop-color="#23FED4" offset="0%"></stop>
            <stop stop-color="#1DA1F2" offset="100%"></stop>
        </linearGradient>
    </defs>
    <g id="Page-1" stroke="none" stroke-width="1" fill="none" fill-rule="evenodd">
        <g id="Group">
            <g id="Group-3" fill="url(#linearGradient-1)">
                <path d="M517.333333,874.972263 C773.593457,874.972263 1024,785.806985 1024,437.486132 C1024,89.1652783 773.593457,0 517.333333,0 C261.073209,0 0,89.1652783 0,437.486132 C1.0658141e-14,601.103678 57.6053887,707.53896 145.2582,774.410735 C172.221354,928.566502 103.252604,1002.43084 90.84375,1018.87669 C250.34375,1034.39774 345.057292,884.277596 375.144792,864.560166 C421.557782,871.869399 469.529303,874.972263 517.333333,874.972263 Z" id="Shape"></path>
            </g>
            <path d="M170.344459,368.706465 L170.344459,368.906732 L205.190921,368.906732 L205.190921,368.706465 C205.190921,336.463474 230.8251,312.030897 264.670227,312.030897 C296.512684,312.030897 321.946595,334.260537 321.946595,362.097653 C321.946595,386.129696 312.734312,401.550256 273.88251,442.404729 L172.146862,549.547586 L172.146862,574.380697 L362.801068,574.380697 L362.801068,542.337973 L222.013351,542.337973 L222.013351,541.536905 L295.110814,466.036238 C343.375167,416.169749 357.99466,392.137706 357.99466,359.894716 C357.99466,315.635704 317.340454,280.588975 265.671562,280.588975 C211.198932,280.588975 170.344459,318.239175 170.344459,368.706465 Z M503.588785,579.187106 C442.507343,579.187106 398.849132,544.540911 398.849132,496.276558 C398.849132,460.228494 423.682243,430.588975 460.931909,421.977493 L460.931909,421.176425 C429.690254,411.563608 410.264352,386.930764 410.264352,356.490176 C410.264352,312.831965 449.917223,280.588975 503.588785,280.588975 C557.660881,280.588975 596.712951,312.631698 596.712951,356.690443 C596.712951,386.730497 577.687583,411.163074 546.245661,421.176425 L546.245661,421.977493 C583.695594,430.789242 608.528705,460.428761 608.528705,496.276558 C608.528705,544.741178 564.870494,579.187106 503.588785,579.187106 Z M503.588785,547.745183 C543.441923,547.745183 571.679573,525.115009 571.679573,493.673087 C571.679573,461.83063 543.441923,439.400724 503.588785,439.400724 C463.935915,439.400724 435.497997,462.030897 435.497997,493.673087 C435.497997,525.115009 463.935915,547.745183 503.588785,547.745183 Z M503.588785,407.758534 C537.233645,407.758534 561.065421,387.932099 561.065421,359.894716 C561.065421,331.456799 537.433912,311.630363 503.588785,311.630363 C469.743658,311.630363 446.11215,331.657066 446.11215,359.894716 C446.11215,387.932099 469.743658,407.758534 503.588785,407.758534 Z M751.118825,579.187106 C683.628838,579.187106 644.576769,521.109669 644.576769,429.787907 C644.576769,339.267212 684.029372,280.588975 751.118825,280.588975 C818.208278,280.588975 857.260347,338.866678 857.260347,429.58764 C857.260347,520.909402 818.408545,579.187106 751.118825,579.187106 Z M751.118825,547.745183 C796.178905,547.745183 821.012016,501.884035 821.012016,429.787907 C821.012016,358.693114 795.778371,312.231164 751.118825,312.231164 C706.459279,312.231164 680.8251,359.093648 680.8251,429.58764 C680.8251,501.683768 705.858478,547.745183 751.118825,547.745183 Z" id="280" fill="#FFFFFF"></path>
        </g>
    </g>
</svg>